<svg width="22" height="27" viewBox="0 0 22 27" fill="none" xmlns="http://www.w3.org/2000/svg">
<path fill-rule="evenodd" clip-rule="evenodd" d="M4.96338 7.99563H3.99631C3.97529 7.99563 3.95583 8.01517 3.95583 8.03595V10.7357C3.95583 10.7566 3.97529 10.7759 3.99631 10.7759H4.96338V7.99563ZM16.3259 6.78681H17.2928C17.981 6.78681 18.5418 7.34765 18.5418 8.03595V10.7356C18.5418 11.4238 17.981 11.9846 17.2928 11.9846H15.6223C15.1245 12.7756 14.4218 13.4666 13.6665 14.0111C13.6665 14.9805 14.3688 15.7721 15.3587 15.7721C18.25 15.7721 20.5969 16.5344 20.5969 20.0431C20.5969 20.3769 20.3262 20.6475 19.9923 20.6475C19.6587 20.6475 19.388 20.3769 19.388 20.0431C19.388 17.2287 17.5223 16.9808 15.3587 16.9808C14.879 16.9808 14.4259 16.8634 14.0267 16.656L10.7985 18.9935C10.5923 19.1495 10.3005 19.1604 10.0803 19.0007L7.00522 16.774C6.67272 16.9074 6.30986 16.9808 5.93029 16.9808C3.76695 16.9808 1.90113 17.2287 1.90113 20.0431C1.90113 20.3769 1.63044 20.6475 1.29676 20.6475C0.963001 20.6475 0.69223 20.3769 0.69223 20.0431C0.69223 16.5344 3.0392 15.7721 5.93029 15.7721C6.81924 15.7721 7.55311 15.0787 7.61791 14.2055C6.7561 13.6396 5.95069 12.8803 5.43182 11.9846H3.99631C3.30809 11.9846 2.74725 11.4238 2.74725 10.7356V8.03595C2.74725 7.34765 3.30801 6.78681 3.99631 6.78681H4.96338V5.92454C4.96338 3.01846 7.31066 0.62207 10.2103 0.62207H11.0787C13.9783 0.62207 16.3259 3.01877 16.3259 5.92469V6.78681ZM15.117 10.7764V6.85843C13.4764 7.06943 11.8271 6.60585 10.5412 5.57478C9.34717 6.52953 7.79722 7.03609 6.1722 6.88125V10.7C6.43489 11.5392 7.07244 12.2797 7.80718 12.8567C8.80892 13.6435 9.94699 14.1083 10.5703 14.1083C11.2022 14.1083 12.4823 13.5195 13.556 12.5583C13.7567 12.379 13.948 12.1871 14.1244 11.9849H12.2561C12.0725 12.2294 11.7799 12.3877 11.4503 12.3877C10.894 12.3877 10.4431 11.9366 10.4431 11.3805C10.4431 10.824 10.894 10.373 11.4503 10.373C11.7799 10.373 12.0725 10.5313 12.2561 10.776C13.0579 10.7759 14.3941 10.7764 15.117 10.7764ZM17.2928 7.99563H16.3259V10.7759H17.2928C17.3137 10.7759 17.3331 10.7566 17.3331 10.7356V8.03595C17.3331 8.01517 17.3137 7.99563 17.2928 7.99563ZM15.1072 5.64184C15.0017 4.08742 14.0324 2.7578 12.673 2.16324C12.4579 3.13156 12.0157 4.00129 11.4114 4.72356C12.4646 5.51493 13.7967 5.84931 15.1072 5.64184ZM11.5057 1.8538C11.3655 1.83881 11.223 1.83097 11.0787 1.83097H10.2103C8.05497 1.83097 6.31041 3.54376 6.18004 5.66961C8.67965 5.9603 10.9876 4.29097 11.5057 1.8538ZM8.05959 16.0473L10.4344 17.7669L13.0695 15.8589C12.81 15.5256 12.6214 15.1347 12.5267 14.709C11.7636 15.0994 11.0474 15.3168 10.5703 15.3168C10.0988 15.3168 9.43737 15.142 8.73472 14.8226C8.61157 15.2861 8.37617 15.7049 8.05959 16.0473Z" fill="#FFA155"/>
<path d="M1.62526 22.5215C6.03666 26.0042 12.0733 28.326 19.7352 22.5215" stroke="#444CFC" stroke-width="1.5" stroke-linecap="round"/>
</svg>
