<svg width="24" height="24" viewBox="0 0 24 24" fill="none" xmlns="http://www.w3.org/2000/svg">
<path d="M22.7289 14.6041C22.7288 14.6041 22.7288 14.6041 22.7289 14.6041L22.2055 14.302C20.4748 13.3028 20.4704 10.6999 22.2055 9.69806L22.7289 9.39595C23.4004 9.0082 23.6313 8.14645 23.2436 7.47502L21.5405 4.52508C21.1528 3.85364 20.2911 3.62287 19.6195 4.01039L19.0985 4.31123C17.3795 5.30348 15.1092 4.02783 15.1092 2.01309V1.40625C15.1092 0.630844 14.4783 0 13.7029 0H10.2967C9.52126 0 8.89041 0.630844 8.89041 1.40625V2.013C8.89041 4.02825 6.6196 5.3032 4.90112 4.31114L4.38006 4.0103C3.70698 3.62161 2.84776 3.85186 2.45907 4.52498L0.755963 7.47492C0.36826 8.14636 0.599119 9.00811 1.2707 9.39586L1.79401 9.69797C3.52463 10.6972 3.52913 13.3001 1.79401 14.3019L1.2706 14.604C0.599072 14.9917 0.368213 15.8535 0.755916 16.5249L2.45903 19.4749C2.84673 20.1464 3.70843 20.3774 4.37996 19.9896L4.90102 19.6887C6.62077 18.696 8.89032 19.9747 8.89032 21.9869V22.5938C8.89032 23.3692 9.52116 24 10.2966 24H13.7028C14.4782 24 15.1091 23.3692 15.1091 22.5938V21.987C15.1091 19.9719 17.3798 18.6967 19.0984 19.6889L19.6195 19.9897C20.291 20.3774 21.1527 20.1465 21.5404 19.475L23.2435 16.5251C23.6322 15.852 23.402 14.9927 22.7289 14.6041ZM20.3226 18.7718L19.8015 18.471C17.1499 16.9401 13.7028 18.8845 13.7028 21.987V22.5938H10.2966V21.987C10.2966 18.8807 6.84601 16.942 4.1979 18.471L3.67684 18.7718L1.97368 15.8219L2.49704 15.5198C3.73571 14.8046 4.50306 13.4627 4.49977 12.0169V12V11.9823C4.5031 10.5374 3.73571 9.19542 2.49704 8.48025L1.97373 8.17814L3.67684 5.2282L4.1979 5.52905C6.84938 7.05998 10.2966 5.11552 10.2966 2.01305V1.40625H13.7028V2.013C13.7028 5.08673 17.1251 7.07414 19.8015 5.529L20.3226 5.22816L22.0257 8.17809L21.5024 8.4802C18.8302 10.023 18.834 13.9792 21.5024 15.5198L22.0257 15.8219L20.3226 18.7718Z" fill="#FFA155"/>
<path d="M11.9997 5.9707C8.6751 5.9707 5.97037 8.67539 5.97037 12C5.97037 15.3245 8.6751 18.0292 11.9997 18.0292C15.3242 18.0292 18.0289 15.3245 18.0289 12C18.0289 8.67539 15.3242 5.9707 11.9997 5.9707ZM11.9997 16.623C9.45051 16.623 7.37662 14.5491 7.37662 12C7.37662 9.4508 9.45051 7.37695 11.9997 7.37695C14.5488 7.37695 16.6227 9.4508 16.6227 12C16.6227 14.5491 14.5488 16.623 11.9997 16.623Z" fill="#444CFC"/>
<path d="M13.6239 10.3651L11.2432 12.1322L10.4692 11.3075C10.2034 11.0243 9.75838 11.0102 9.47526 11.276C9.19209 11.5417 9.17798 11.9867 9.44376 12.2698L10.6465 13.5513C10.891 13.8119 11.2918 13.8474 11.5782 13.6348L14.462 11.4943C14.7738 11.2628 14.839 10.8224 14.6075 10.5106C14.3761 10.1989 13.9357 10.1337 13.6239 10.3651Z" fill="#444CFC"/>
</svg>
